<svg width="1080" height="66" viewBox="0 0 1080 66" fill="none" xmlns="http://www.w3.org/2000/svg">
<path d="M14.3921 0.719999V52.944H17.6561L36.2801 33.36V0.719999H50.5841V33.456L69.1121 52.944H72.3761V0.719999H86.6801V66H62.3921L43.3841 45.744L24.3761 66H0.0881252V0.719999H14.3921ZM184.644 40.176V27.12H140.964L153.636 13.776H184.644V0.719999H147.012L98.2444 52.848V66H184.644V52.944H116.964L128.964 40.176H184.644ZM196.119 0.719999H268.311V12.624L256.791 26.832H268.311V66H196.119V0.719999ZM210.423 52.944H254.103V39.792H222.807V26.832H239.895L251.223 13.776H210.423V52.944ZM392.574 52.944H334.494V66H406.782V26.832L381.726 0.719999H334.59V13.776H375.966L388.35 26.832H334.494V39.888H392.574V52.944ZM418.307 52.944V66H432.611V52.944H418.307ZM491.992 0.719999L516.28 26.832V66H444.088V26.832L468.376 0.719999H491.992ZM458.104 52.752H502.264V31.344L485.752 13.776H474.616L458.104 31.344V52.752ZM609.151 26.832H654.751V66H582.463V0.719999H654.751V13.776H596.767V52.944H640.447V39.888H609.151V26.832ZM680.58 13.776V66H666.276V0.719999H738.564V39.888H726.276L738.468 52.944V66H724.356V57.84L707.652 39.888H693.06V26.832H724.164V13.776H680.58ZM790.024 0.719999H827.752V66H813.448V13.776H795.976L769.288 38.64H801.064V51.888H764.392V66H750.088V39.024L790.024 0.719999ZM904.428 0.719999H918.636V66H904.428V50.064L870.252 13.776H853.548V66H839.244V0.719999H876.684L904.428 30.288V0.719999ZM930.182 0.719999H1002.47V13.776H973.478V66H959.174V13.776H930.182V0.719999ZM1007.62 66V52.944H1065.6V39.888H1007.62V26.832L1032.68 0.719999H1079.81V13.776H1038.53L1025.76 26.832H1079.91V66H1007.62Z" fill="url(#paint0_linear_145_1121)"/>
<defs>
<linearGradient id="paint0_linear_145_1121" x1="-129.971" y1="-35.8854" x2="767.381" y2="669.127" gradientUnits="userSpaceOnUse">
<stop stop-color="#281E87"/>
<stop offset="0.289583" stop-color="#4628B4"/>
<stop offset="0.628125" stop-color="#6947BD"/>
<stop offset="1" stop-color="#9378CC"/>
</linearGradient>
</defs>
</svg>
